<?xml version="1.0" standalone="no"?>
<!DOCTYPE svg PUBLIC "-//W3C//DTD SVG 20010904//EN"
 "http://www.w3.org/TR/2001/REC-SVG-20010904/DTD/svg10.dtd">
<svg version="1.0" xmlns="http://www.w3.org/2000/svg"
 width="794.000000pt" height="794.000000pt" viewBox="0 0 794.000000 794.000000"
 preserveAspectRatio="xMidYMid meet">
<metadata>
Created by potrace 1.11, written by Peter Selinger 2001-2013
</metadata>
<g transform="translate(0.000000,794.000000) scale(0.100000,-0.100000)"
fill="#000000" stroke="none">
<path d="M2611 7749 c-254 -18 -497 -120 -653 -273 l-71 -71 6 80 c3 44 13
100 22 124 8 24 15 48 15 53 0 12 -66 -36 -148 -108 -190 -169 -394 -524 -427
-747 -4 -26 -11 -49 -15 -52 -12 -7 -40 108 -50 202 -5 47 -11 87 -13 90 -8 8
-55 -60 -76 -110 -93 -218 -126 -525 -81 -760 44 -228 122 -396 251 -537 40
-44 41 -45 35 -15 -32 160 -32 289 -2 446 21 110 79 279 96 279 3 0 14 -24 24
-52 34 -98 93 -214 149 -294 96 -137 261 -285 392 -352 l40 -20 0 227 c0 188
3 240 19 311 11 47 18 101 16 120 -3 19 -4 103 -4 185 0 137 3 157 27 224 68
188 228 335 404 371 34 7 97 10 151 8 84 -5 101 -9 176 -47 191 -94 299 -280
313 -536 9 -184 -35 -375 -122 -518 l-36 -59 50 -66 c46 -62 161 -179 351
-357 41 -39 108 -102 148 -140 l73 -70 20 25 c169 215 326 562 390 860 32 146
32 399 1 543 -44 200 -120 379 -220 512 -90 121 -250 270 -362 337 -201 121
-350 169 -584 188 -140 11 -139 11 -305 -1z"/>
<path d="M2303 6360 c-93 -191 -124 -513 -73 -745 14 -64 12 -62 101 -128 126
-93 240 -228 283 -337 10 -25 20 -51 23 -57 13 -32 -18 -8 -46 35 -73 113
-212 220 -496 382 -297 170 -458 306 -544 461 -33 59 -35 61 -44 38 -16 -41
-20 -220 -7 -299 7 -44 26 -99 46 -138 19 -36 34 -69 34 -73 0 -4 -18 -2 -40
6 -60 21 -178 35 -350 41 -177 6 -173 13 -45 -80 108 -78 225 -237 225 -304 0
-41 -29 -88 -73 -119 -23 -17 -134 -82 -247 -145 -294 -165 -513 -308 -497
-324 2 -3 46 2 98 11 287 46 485 -24 534 -189 30 -99 20 -195 -42 -416 -6 -22
0 -19 43 22 72 68 97 87 229 175 207 138 441 251 558 268 26 4 47 11 47 15 0
11 -123 39 -230 52 -47 6 -89 14 -93 18 -11 10 98 97 193 154 85 52 227 105
350 132 89 19 360 30 410 17 32 -9 26 -11 -65 -22 -118 -14 -252 -48 -362 -90
-93 -37 -186 -88 -179 -100 3 -5 25 -11 48 -15 42 -7 244 -64 262 -74 4 -2
-16 -18 -45 -35 -140 -79 -287 -230 -359 -369 -22 -42 -40 -79 -40 -83 0 -4
15 3 34 14 72 45 142 61 265 61 129 0 197 -14 267 -55 106 -62 162 -140 185
-253 24 -126 -27 -287 -121 -381 -30 -30 -44 -51 -37 -54 17 -6 175 10 216 22
19 6 36 9 39 7 2 -2 -6 -22 -17 -44 -27 -53 -116 -149 -171 -184 l-45 -29 60
6 c135 15 310 79 398 146 98 75 187 174 187 207 0 5 -17 6 -40 2 -89 -16 -161
16 -177 78 -5 23 17 196 34 260 l6 23 -38 -25 c-46 -31 -95 -34 -120 -6 -42
46 -23 193 41 322 19 37 30 69 25 72 -15 10 -195 35 -263 38 -38 1 -68 5 -68
9 0 12 104 39 235 60 159 26 468 31 553 10 101 -25 117 -106 47 -243 -19 -38
-35 -71 -35 -72 0 -2 60 -6 133 -9 151 -6 236 -28 313 -80 72 -48 106 -110
112 -201 2 -41 0 -88 -6 -105 -14 -41 -2 -40 57 4 86 62 183 182 240 293 63
123 115 387 93 467 l-8 29 -31 -45 c-52 -76 -145 -149 -188 -149 -10 0 -15 10
-15 33 0 33 -30 92 -59 115 -9 7 -32 21 -52 32 l-36 19 4 68 c7 96 -26 245
-75 347 -80 163 -200 305 -474 561 -194 180 -365 358 -424 440 -40 55 -123
222 -149 300 -9 28 -19 87 -22 132 -3 45 -9 80 -13 78 -19 -12 -51 -102 -71
-197 -22 -109 -22 -252 1 -330 12 -42 84 -118 322 -336 242 -223 394 -401 461
-544 56 -117 53 -129 -8 -38 -32 47 -76 108 -98 135 -47 57 -236 241 -377 365
-52 47 -174 163 -271 260 -173 173 -261 284 -304 385 -34 79 -67 212 -74 295
l-6 85 -42 -85z m936 -1537 c73 -47 143 -120 191 -202 53 -89 52 -95 -9 -88
-123 15 -205 99 -260 266 -12 36 -21 66 -21 68 0 10 49 -12 99 -44z"/>
<path d="M6104 5271 c-127 -31 -309 -138 -479 -281 -180 -153 -253 -198 -300
-186 -19 5 -25 13 -25 34 0 35 38 115 90 192 22 33 37 60 33 60 -14 0 -116
-72 -193 -136 -198 -165 -389 -399 -504 -614 -76 -145 -147 -337 -100 -275 44
60 175 179 294 269 255 192 452 294 740 380 158 48 273 66 404 65 122 -2 114
-5 -73 -33 -450 -68 -1028 -443 -1463 -951 -97 -113 -228 -283 -228 -295 0 -5
21 -16 48 -24 51 -17 169 -102 346 -249 76 -62 111 -86 114 -76 13 39 199 398
255 489 159 264 311 473 451 619 126 131 228 193 394 238 85 24 116 27 252 28
176 0 224 -10 350 -76 42 -21 79 -39 83 -39 3 0 31 15 60 34 196 125 601 216
895 202 85 -5 132 -4 132 3 0 25 -220 198 -348 273 -251 149 -584 229 -832
199 -113 -14 -174 -29 -342 -83 -79 -25 -135 -38 -150 -35 -35 9 -49 45 -33
83 16 38 99 111 181 159 35 21 64 39 64 41 0 8 -48 2 -116 -15z"/>
<path d="M974 4358 c-310 -333 -521 -634 -648 -928 -49 -114 -80 -200 -71
-200 2 0 27 21 57 46 69 60 262 188 266 176 1 -5 -13 -42 -32 -84 -57 -126
-93 -280 -121 -518 -59 -499 68 -1062 324 -1441 76 -112 185 -238 196 -227 4
3 2 38 -4 77 -13 82 -15 221 -3 221 5 0 19 -19 32 -42 35 -64 130 -177 212
-253 218 -202 544 -371 843 -436 275 -59 676 -45 943 35 574 172 1030 588
1383 1260 l62 119 -30 26 c-390 333 -503 427 -589 493 -8 6 -24 -12 -48 -56
-89 -159 -276 -382 -430 -513 -304 -260 -569 -342 -860 -268 -149 37 -234 83
-333 178 -148 142 -236 301 -280 509 -27 125 -24 369 6 507 41 185 103 342
202 506 56 94 193 274 274 360 36 38 65 73 65 77 0 18 -91 30 -190 26 -85 -4
-118 -10 -175 -33 -85 -34 -153 -77 -222 -139 l-53 -48 0 40 c0 116 51 287
120 401 26 45 44 81 39 81 -17 0 -245 -118 -350 -181 -186 -112 -328 -219
-466 -353 l-93 -89 0 44 c0 71 18 203 50 362 40 198 38 310 -6 324 -6 2 -38
-25 -70 -59z"/>
<path d="M3070 4139 c-7 -28 -10 -85 -8 -128 7 -129 44 -179 265 -354 134
-106 150 -131 165 -255 32 -272 65 -352 195 -480 47 -46 128 -117 181 -159
194 -154 509 -420 595 -502 72 -70 95 -100 130 -170 l42 -85 0 -345 1 -346 29
-84 c63 -185 197 -337 375 -426 114 -57 118 -56 70 14 -124 182 -127 433 -6
613 23 34 46 61 51 60 6 -1 13 -29 17 -64 25 -221 175 -485 362 -636 91 -75
218 -138 333 -168 131 -35 355 -44 489 -20 255 44 546 190 657 328 36 44 31
56 -15 37 -23 -10 -71 -14 -158 -13 -103 2 -141 6 -215 28 -107 32 -242 95
-270 127 l-20 22 80 -7 c44 -4 124 -2 179 4 242 27 441 121 609 287 245 243
320 566 202 879 -105 279 -396 515 -702 569 -90 16 -323 32 -323 22 0 -3 17
-11 38 -16 104 -28 252 -154 302 -255 112 -227 14 -477 -232 -594 -124 -60
-200 -76 -355 -77 -72 0 -135 3 -139 7 -4 4 16 32 43 61 109 115 155 280 133
475 -13 118 -40 198 -95 288 -44 69 -128 159 -174 184 -21 11 -23 10 -18 -4
15 -39 18 -117 7 -172 -53 -260 -292 -367 -530 -237 -36 19 -103 67 -149 107
-201 171 -679 562 -789 645 -117 88 -222 121 -392 121 -101 0 -144 13 -176 55
-26 35 -54 119 -54 167 0 48 -42 142 -79 179 -20 20 -54 42 -76 48 -38 11 -71
16 -260 41 -159 21 -281 123 -288 240 -1 22 -5 40 -9 40 -3 0 -12 -23 -18 -51z"/>
</g>
</svg>
